<?xml version="1.0" standalone="no"?>
<!DOCTYPE svg PUBLIC "-//W3C//DTD SVG 20010904//EN"
 "http://www.w3.org/TR/2001/REC-SVG-20010904/DTD/svg10.dtd">
<svg version="1.0" xmlns="http://www.w3.org/2000/svg"
 width="200.000000pt" height="200.000000pt" viewBox="0 0 200.000000 200.000000"
 preserveAspectRatio="xMidYMid meet">
<metadata>
Created by potrace 1.14, written by Peter Selinger 2001-2017
</metadata>
<g transform="translate(0.000000,200.000000) scale(0.100000,-0.100000)"
fill="#000000" stroke="none">
<path d="M900 1729 c-25 -5 -58 -11 -73 -14 -70 -14 -195 -66 -252 -104 -26
-18 -32 -19 -51 -6 -12 7 -47 21 -79 30 -144 42 -279 -34 -363 -205 -23 -47
-27 -68 -27 -140 0 -72 4 -94 28 -145 15 -33 31 -62 35 -65 22 -15 61 -73 56
-81 -15 -25 3 -350 21 -379 2 -4 6 -19 9 -35 10 -57 68 -156 119 -206 81 -79
215 -131 397 -154 78 -11 449 -14 507 -5 26 4 73 11 103 14 82 10 208 51 271
89 169 102 241 278 241 589 0 48 -3 91 -6 96 -3 5 6 20 21 33 67 62 103 157
100 262 -2 61 -8 85 -35 139 -38 74 -108 150 -167 181 -61 32 -162 30 -237 -5
-32 -15 -60 -23 -63 -18 -10 17 -174 89 -248 109 -84 23 -232 32 -307 20z"/>
</g>
</svg>
